<svg width="1200" height="360" viewBox="0 0 1200 360" fill="none" xmlns="http://www.w3.org/2000/svg">
  <defs>
    <linearGradient id="background" x1="40" y1="20" x2="1160" y2="340" gradientUnits="userSpaceOnUse">
      <stop stop-color="#050A14"/>
      <stop offset="0.5" stop-color="#0B1324"/>
      <stop offset="1" stop-color="#071B1B"/>
    </linearGradient>
    <linearGradient id="accent" x1="280" y1="100" x2="910" y2="270" gradientUnits="userSpaceOnUse">
      <stop stop-color="#38BDF8"/>
      <stop offset="0.52" stop-color="#818CF8"/>
      <stop offset="1" stop-color="#2DD4BF"/>
    </linearGradient>
    <radialGradient id="glow" cx="0" cy="0" r="1" gradientTransform="translate(960 80) rotate(142) scale(510 300)" gradientUnits="userSpaceOnUse">
      <stop stop-color="#14B8A6" stop-opacity="0.22"/>
      <stop offset="1" stop-color="#14B8A6" stop-opacity="0"/>
    </radialGradient>
    <pattern id="grid" width="36" height="36" patternUnits="userSpaceOnUse">
      <path d="M36 0H0V36" stroke="#94A3B8" stroke-opacity="0.07"/>
    </pattern>
    <filter id="shadow" x="-20%" y="-20%" width="140%" height="140%">
      <feDropShadow dx="0" dy="8" stdDeviation="14" flood-color="#020617" flood-opacity="0.7"/>
    </filter>
  </defs>

  <rect width="1200" height="360" rx="28" fill="url(#background)"/>
  <rect width="1200" height="360" rx="28" fill="url(#glow)"/>
  <rect x="1" y="1" width="1198" height="358" rx="27" stroke="url(#accent)" stroke-opacity="0.45" stroke-width="2"/>
  <rect width="1200" height="360" rx="28" fill="url(#grid)"/>

  <g opacity="0.6">
    <path d="M0 72H208L246 110H420" stroke="#38BDF8" stroke-opacity="0.34"/>
    <path d="M1200 286H1020L982 248H842" stroke="#2DD4BF" stroke-opacity="0.34"/>
    <circle cx="246" cy="110" r="4" fill="#38BDF8"/>
    <circle cx="982" cy="248" r="4" fill="#2DD4BF"/>
  </g>

  <g transform="translate(78 70)" filter="url(#shadow)">
    <path d="M90 0L168 30V91C168 143 136 184 90 204C44 184 12 143 12 91V30L90 0Z" fill="#0F172A" stroke="url(#accent)" stroke-width="4"/>
    <path d="M90 28L143 48V91C143 125 123 153 90 170C57 153 37 125 37 91V48L90 28Z" fill="#08111F" stroke="#38BDF8" stroke-opacity="0.4"/>
    <path d="M59 75L81 97L124 54" stroke="url(#accent)" stroke-width="10" stroke-linecap="round" stroke-linejoin="round"/>
    <path d="M55 130H125" stroke="#2DD4BF" stroke-width="4" stroke-linecap="round" stroke-dasharray="5 10"/>
  </g>

  <g transform="translate(320 76)">
    <text x="0" y="74" fill="#F8FAFC" font-family="Segoe UI, Arial, sans-serif" font-size="72" font-weight="800" letter-spacing="5">SAMURAI</text>
    <rect x="2" y="98" width="690" height="3" rx="1.5" fill="url(#accent)"/>
    <text x="0" y="142" fill="#BAE6FD" font-family="Segoe UI, Arial, sans-serif" font-size="24" font-weight="600" letter-spacing="2">AI • CYBERSECURITY • FULL-STACK ENGINEERING</text>
    <text x="0" y="190" fill="#94A3B8" font-family="Segoe UI, Arial, sans-serif" font-size="20">Secure systems for critical, real-world operations.</text>
    <g transform="translate(0 225)">
      <rect width="188" height="38" rx="19" fill="#0C4A6E" fill-opacity="0.7" stroke="#38BDF8" stroke-opacity="0.5"/>
      <text x="24" y="25" fill="#E0F2FE" font-family="Segoe UI, Arial, sans-serif" font-size="15" font-weight="700">HUMAN-CENTERED AI</text>
      <rect x="204" width="154" height="38" rx="19" fill="#312E81" fill-opacity="0.65" stroke="#818CF8" stroke-opacity="0.5"/>
      <text x="231" y="25" fill="#E0E7FF" font-family="Segoe UI, Arial, sans-serif" font-size="15" font-weight="700">SECURITY FIRST</text>
      <rect x="374" width="146" height="38" rx="19" fill="#134E4A" fill-opacity="0.65" stroke="#2DD4BF" stroke-opacity="0.5"/>
      <text x="400" y="25" fill="#CCFBF1" font-family="Segoe UI, Arial, sans-serif" font-size="15" font-weight="700">AUDITABILITY</text>
    </g>
  </g>
</svg>
